<mxfile host="app.diagrams.net" modified="2022-08-10T07:19:34.242Z" agent="5.0 (Macintosh; Intel Mac OS X 10_15_7) AppleWebKit/537.36 (KHTML, like Gecko) Chrome/104.0.0.0 Safari/537.36" etag="BHnFDSg3CMFBUWsIwzao" version="20.2.3" type="github">
  <diagram id="yPxyJZ8AM_hMuL3Unpa9" name="simple gitflow">
    <mxGraphModel dx="1050" dy="619" grid="1" gridSize="10" guides="1" tooltips="1" connect="1" arrows="1" fold="1" page="1" pageScale="1" pageWidth="1100" pageHeight="850" math="0" shadow="0">
      <root>
        <mxCell id="0" />
        <mxCell id="1" parent="0" />
        <UserObject label="HANPASS 권한 체크&lt;br&gt;" link="https://nvie.com/posts/a-successful-git-branching-model/" id="9hBKPDzoitwpIBdzFDQ7-6">
          <mxCell style="text;whiteSpace=wrap;html=1;fontStyle=1;fontSize=17;" parent="1" vertex="1">
            <mxGeometry x="90" y="60" width="542.25" height="30" as="geometry" />
          </mxCell>
        </UserObject>
        <UserObject label="See:" link="https://nvie.com/posts/a-successful-git-branching-model/" id="9hBKPDzoitwpIBdzFDQ7-10">
          <mxCell style="text;whiteSpace=wrap;html=1;" parent="1" vertex="1">
            <mxGeometry x="91.5" y="90" width="32.75" height="20" as="geometry" />
          </mxCell>
        </UserObject>
        <mxCell id="9hBKPDzoitwpIBdzFDQ7-25" value="" style="verticalLabelPosition=bottom;verticalAlign=top;html=1;strokeWidth=4;shape=mxgraph.flowchart.on-page_reference;plain-blue;gradientColor=none;fillColor=#B5E3Fe;strokeColor=#000000;" parent="1" vertex="1">
          <mxGeometry x="150" y="255" width="30" height="30" as="geometry" />
        </mxCell>
        <mxCell id="9hBKPDzoitwpIBdzFDQ7-41" value="" style="edgeStyle=orthogonalEdgeStyle;curved=1;rounded=0;orthogonalLoop=1;jettySize=auto;html=1;endArrow=none;endFill=0;strokeWidth=4;fontFamily=Courier New;fontSize=16;" parent="1" source="9hBKPDzoitwpIBdzFDQ7-26" target="9hBKPDzoitwpIBdzFDQ7-40" edge="1">
          <mxGeometry relative="1" as="geometry">
            <Array as="points">
              <mxPoint x="690" y="55" />
              <mxPoint x="690" y="55" />
            </Array>
          </mxGeometry>
        </mxCell>
        <mxCell id="9hBKPDzoitwpIBdzFDQ7-26" value="" style="verticalLabelPosition=bottom;verticalAlign=top;html=1;strokeWidth=4;shape=mxgraph.flowchart.on-page_reference;plain-blue;gradientColor=none;strokeColor=#000000;" parent="1" vertex="1">
          <mxGeometry x="600" y="40" width="30" height="30" as="geometry" />
        </mxCell>
        <mxCell id="9hBKPDzoitwpIBdzFDQ7-43" value="" style="edgeStyle=orthogonalEdgeStyle;curved=1;rounded=0;orthogonalLoop=1;jettySize=auto;html=1;endArrow=none;endFill=0;strokeWidth=4;fontFamily=Courier New;fontSize=16;" parent="1" source="9hBKPDzoitwpIBdzFDQ7-40" target="9hBKPDzoitwpIBdzFDQ7-42" edge="1">
          <mxGeometry relative="1" as="geometry" />
        </mxCell>
        <mxCell id="9hBKPDzoitwpIBdzFDQ7-52" value="" style="edgeStyle=orthogonalEdgeStyle;curved=1;rounded=0;orthogonalLoop=1;jettySize=auto;html=1;endArrow=none;endFill=0;strokeWidth=4;fontFamily=Courier New;fontSize=16;entryX=0;entryY=0.5;entryDx=0;entryDy=0;entryPerimeter=0;" parent="1" source="9hBKPDzoitwpIBdzFDQ7-40" target="9hBKPDzoitwpIBdzFDQ7-50" edge="1">
          <mxGeometry relative="1" as="geometry">
            <mxPoint x="729.5" y="150" as="targetPoint" />
          </mxGeometry>
        </mxCell>
        <mxCell id="9hBKPDzoitwpIBdzFDQ7-40" value="" style="verticalLabelPosition=bottom;verticalAlign=top;html=1;strokeWidth=4;shape=mxgraph.flowchart.on-page_reference;plain-blue;gradientColor=none;strokeColor=#000000;" parent="1" vertex="1">
          <mxGeometry x="720" y="40" width="30" height="30" as="geometry" />
        </mxCell>
        <mxCell id="9hBKPDzoitwpIBdzFDQ7-56" value="" style="edgeStyle=orthogonalEdgeStyle;curved=1;rounded=0;orthogonalLoop=1;jettySize=auto;html=1;endArrow=none;endFill=0;strokeWidth=4;fontFamily=Courier New;fontSize=16;" parent="1" source="9hBKPDzoitwpIBdzFDQ7-42" target="9hBKPDzoitwpIBdzFDQ7-55" edge="1">
          <mxGeometry relative="1" as="geometry" />
        </mxCell>
        <mxCell id="9hBKPDzoitwpIBdzFDQ7-42" value="" style="verticalLabelPosition=bottom;verticalAlign=top;html=1;strokeWidth=4;shape=mxgraph.flowchart.on-page_reference;plain-blue;gradientColor=none;strokeColor=#000000;" parent="1" vertex="1">
          <mxGeometry x="819" y="40" width="30" height="30" as="geometry" />
        </mxCell>
        <mxCell id="9hBKPDzoitwpIBdzFDQ7-55" value="" style="verticalLabelPosition=bottom;verticalAlign=top;html=1;strokeWidth=4;shape=mxgraph.flowchart.on-page_reference;plain-blue;gradientColor=none;strokeColor=#000000;" parent="1" vertex="1">
          <mxGeometry x="911.25" y="40" width="30" height="30" as="geometry" />
        </mxCell>
        <mxCell id="9hBKPDzoitwpIBdzFDQ7-27" value="" style="edgeStyle=orthogonalEdgeStyle;rounded=0;html=1;jettySize=auto;orthogonalLoop=1;strokeWidth=4;endArrow=none;endFill=0;entryX=1;entryY=0.5;entryDx=0;entryDy=0;exitX=0;exitY=0.5;exitDx=0;exitDy=0;exitPerimeter=0;" parent="1" target="9hBKPDzoitwpIBdzFDQ7-28" edge="1" source="9hBKPDzoitwpIBdzFDQ7-25">
          <mxGeometry x="204.5" y="270" as="geometry">
            <mxPoint x="150" y="270" as="sourcePoint" />
            <mxPoint x="160" y="270" as="targetPoint" />
            <Array as="points">
              <mxPoint x="150" y="270" />
            </Array>
          </mxGeometry>
        </mxCell>
        <mxCell id="9hBKPDzoitwpIBdzFDQ7-28" value="Total&lt;br&gt;Service" style="text;html=1;strokeColor=none;fillColor=none;align=center;verticalAlign=middle;whiteSpace=wrap;overflow=hidden;fontSize=14;fontStyle=1;fontFamily=Courier New;" parent="1" vertex="1">
          <mxGeometry x="29" y="250" width="62.5" height="40" as="geometry" />
        </mxCell>
        <mxCell id="9hBKPDzoitwpIBdzFDQ7-29" style="edgeStyle=orthogonalEdgeStyle;curved=1;rounded=0;html=1;exitX=1;exitY=0.5;exitPerimeter=0;entryX=0;entryY=0.5;entryPerimeter=0;endArrow=none;endFill=0;jettySize=auto;orthogonalLoop=1;strokeWidth=4;fontSize=15;" parent="1" source="9hBKPDzoitwpIBdzFDQ7-30" target="9hBKPDzoitwpIBdzFDQ7-32" edge="1">
          <mxGeometry relative="1" as="geometry" />
        </mxCell>
        <mxCell id="9hBKPDzoitwpIBdzFDQ7-30" value="" style="verticalLabelPosition=bottom;verticalAlign=top;html=1;strokeWidth=4;shape=mxgraph.flowchart.on-page_reference;plain-purple;gradientColor=none;strokeColor=#000000;" parent="1" vertex="1">
          <mxGeometry x="400" y="135" width="30" height="30" as="geometry" />
        </mxCell>
        <mxCell id="9hBKPDzoitwpIBdzFDQ7-31" style="edgeStyle=orthogonalEdgeStyle;curved=1;rounded=0;html=1;exitX=1;exitY=0.5;exitPerimeter=0;entryX=0;entryY=0.5;entryPerimeter=0;endArrow=none;endFill=0;jettySize=auto;orthogonalLoop=1;strokeWidth=4;fontSize=15;" parent="1" source="9hBKPDzoitwpIBdzFDQ7-32" target="9hBKPDzoitwpIBdzFDQ7-34" edge="1">
          <mxGeometry relative="1" as="geometry" />
        </mxCell>
        <mxCell id="9hBKPDzoitwpIBdzFDQ7-32" value="" style="verticalLabelPosition=bottom;verticalAlign=top;html=1;strokeWidth=4;shape=mxgraph.flowchart.on-page_reference;plain-purple;gradientColor=none;strokeColor=#000000;" parent="1" vertex="1">
          <mxGeometry x="459.5" y="120" width="30" height="30" as="geometry" />
        </mxCell>
        <mxCell id="9hBKPDzoitwpIBdzFDQ7-33" style="edgeStyle=orthogonalEdgeStyle;curved=1;rounded=0;html=1;exitX=1;exitY=0.5;exitPerimeter=0;entryX=0;entryY=0.5;entryPerimeter=0;endArrow=none;endFill=0;jettySize=auto;orthogonalLoop=1;strokeWidth=4;fontSize=15;" parent="1" source="9hBKPDzoitwpIBdzFDQ7-34" target="9hBKPDzoitwpIBdzFDQ7-26" edge="1">
          <mxGeometry relative="1" as="geometry" />
        </mxCell>
        <mxCell id="9hBKPDzoitwpIBdzFDQ7-34" value="" style="verticalLabelPosition=bottom;verticalAlign=top;html=1;strokeWidth=4;shape=mxgraph.flowchart.on-page_reference;plain-purple;gradientColor=none;strokeColor=#000000;" parent="1" vertex="1">
          <mxGeometry x="532.5" y="120" width="30" height="30" as="geometry" />
        </mxCell>
        <mxCell id="9hBKPDzoitwpIBdzFDQ7-54" value="" style="edgeStyle=orthogonalEdgeStyle;curved=1;rounded=0;orthogonalLoop=1;jettySize=auto;html=1;endArrow=none;endFill=0;strokeWidth=4;fontFamily=Courier New;fontSize=16;entryX=0;entryY=0.5;entryDx=0;entryDy=0;entryPerimeter=0;" parent="1" source="9hBKPDzoitwpIBdzFDQ7-50" target="9hBKPDzoitwpIBdzFDQ7-55" edge="1">
          <mxGeometry relative="1" as="geometry">
            <mxPoint x="942.25" y="135" as="targetPoint" />
          </mxGeometry>
        </mxCell>
        <mxCell id="9hBKPDzoitwpIBdzFDQ7-50" value="" style="verticalLabelPosition=bottom;verticalAlign=top;html=1;strokeWidth=4;shape=mxgraph.flowchart.on-page_reference;plain-blue;gradientColor=#EA6B66;strokeColor=#B85450;fillColor=#F8CECC;direction=north;" parent="1" vertex="1">
          <mxGeometry x="819" y="120" width="30" height="30" as="geometry" />
        </mxCell>
        <mxCell id="ZWDIc0FmqlrQE_8LziBr-5" value="" style="verticalLabelPosition=bottom;verticalAlign=top;html=1;strokeWidth=4;shape=mxgraph.flowchart.on-page_reference;plain-purple;gradientColor=none;strokeColor=#000000;" vertex="1" parent="1">
          <mxGeometry x="330" y="40" width="30" height="30" as="geometry" />
        </mxCell>
        <mxCell id="ZWDIc0FmqlrQE_8LziBr-7" value="&lt;font color=&quot;#000000&quot;&gt;선물하기&lt;/font&gt;" style="rounded=1;whiteSpace=wrap;html=1;fillColor=#FFFFFF;strokeColor=#2D7600;fillStyle=auto;fontColor=#ffffff;strokeWidth=4;" vertex="1" parent="1">
          <mxGeometry x="230" y="250" width="90" height="40" as="geometry" />
        </mxCell>
        <mxCell id="ZWDIc0FmqlrQE_8LziBr-26" value="" style="edgeStyle=orthogonalEdgeStyle;rounded=0;html=1;jettySize=auto;orthogonalLoop=1;strokeWidth=4;endArrow=none;endFill=0;entryX=1;entryY=0.5;entryDx=0;entryDy=0;exitX=0;exitY=0.5;exitDx=0;exitDy=0;" edge="1" parent="1" source="ZWDIc0FmqlrQE_8LziBr-7">
          <mxGeometry x="293" y="269.88" as="geometry">
            <mxPoint x="238.5" y="269.88" as="sourcePoint" />
            <mxPoint x="180" y="269.88" as="targetPoint" />
            <Array as="points">
              <mxPoint x="209" y="270" />
            </Array>
          </mxGeometry>
        </mxCell>
        <mxCell id="ZWDIc0FmqlrQE_8LziBr-27" value="&lt;font color=&quot;#000000&quot;&gt;쇼핑하기&lt;br&gt;&lt;/font&gt;" style="rounded=1;whiteSpace=wrap;html=1;fillColor=#FFFFFF;strokeColor=#2D7600;fillStyle=auto;fontColor=#ffffff;strokeWidth=4;" vertex="1" parent="1">
          <mxGeometry x="230" y="320" width="90" height="40" as="geometry" />
        </mxCell>
        <mxCell id="ZWDIc0FmqlrQE_8LziBr-28" value="&lt;font color=&quot;#000000&quot;&gt;해외배송 &amp;amp; 픽업&lt;br&gt;&lt;/font&gt;" style="rounded=1;whiteSpace=wrap;html=1;fillColor=#FFFFFF;strokeColor=#2D7600;fillStyle=auto;fontColor=#ffffff;strokeWidth=4;" vertex="1" parent="1">
          <mxGeometry x="230" y="385" width="90" height="40" as="geometry" />
        </mxCell>
        <mxCell id="ZWDIc0FmqlrQE_8LziBr-29" value="" style="edgeStyle=orthogonalEdgeStyle;rounded=0;html=1;jettySize=auto;orthogonalLoop=1;strokeWidth=4;endArrow=none;endFill=0;exitX=0;exitY=0.5;exitDx=0;exitDy=0;" edge="1" parent="1" source="ZWDIc0FmqlrQE_8LziBr-27">
          <mxGeometry x="303" y="279.88" as="geometry">
            <mxPoint x="240" y="280" as="sourcePoint" />
            <mxPoint x="180" y="270" as="targetPoint" />
            <Array as="points">
              <mxPoint x="200" y="340" />
              <mxPoint x="200" y="270" />
            </Array>
          </mxGeometry>
        </mxCell>
        <mxCell id="ZWDIc0FmqlrQE_8LziBr-30" value="" style="edgeStyle=orthogonalEdgeStyle;rounded=0;html=1;jettySize=auto;orthogonalLoop=1;strokeWidth=4;endArrow=none;endFill=0;exitX=0;exitY=0.5;exitDx=0;exitDy=0;entryX=1;entryY=0.5;entryDx=0;entryDy=0;entryPerimeter=0;" edge="1" parent="1" source="ZWDIc0FmqlrQE_8LziBr-28" target="9hBKPDzoitwpIBdzFDQ7-25">
          <mxGeometry x="313" y="289.88" as="geometry">
            <mxPoint x="240" y="370" as="sourcePoint" />
            <mxPoint x="190" y="280" as="targetPoint" />
            <Array as="points">
              <mxPoint x="200" y="405" />
              <mxPoint x="200" y="270" />
            </Array>
          </mxGeometry>
        </mxCell>
        <mxCell id="ZWDIc0FmqlrQE_8LziBr-31" value="&lt;font color=&quot;#000000&quot;&gt;선불폰 충전&lt;br&gt;&lt;/font&gt;" style="rounded=1;whiteSpace=wrap;html=1;fillColor=#FFFFFF;strokeColor=#2D7600;fillStyle=auto;fontColor=#ffffff;strokeWidth=4;" vertex="1" parent="1">
          <mxGeometry x="230" y="460" width="90" height="40" as="geometry" />
        </mxCell>
        <mxCell id="ZWDIc0FmqlrQE_8LziBr-32" value="&lt;font color=&quot;#000000&quot;&gt;호텔 예약&lt;br&gt;&lt;/font&gt;" style="rounded=1;whiteSpace=wrap;html=1;fillColor=#FFFFFF;strokeColor=#2D7600;fillStyle=auto;fontColor=#ffffff;strokeWidth=4;" vertex="1" parent="1">
          <mxGeometry x="230" y="540" width="90" height="40" as="geometry" />
        </mxCell>
        <mxCell id="ZWDIc0FmqlrQE_8LziBr-33" value="&lt;font color=&quot;#000000&quot;&gt;항공권 예약&lt;br&gt;&lt;/font&gt;" style="rounded=1;whiteSpace=wrap;html=1;fillColor=#FFFFFF;strokeColor=#2D7600;fillStyle=auto;fontColor=#ffffff;strokeWidth=4;" vertex="1" parent="1">
          <mxGeometry x="230" y="620" width="90" height="40" as="geometry" />
        </mxCell>
        <mxCell id="ZWDIc0FmqlrQE_8LziBr-34" value="" style="edgeStyle=orthogonalEdgeStyle;rounded=0;html=1;jettySize=auto;orthogonalLoop=1;strokeWidth=4;endArrow=none;endFill=0;exitX=0;exitY=0.5;exitDx=0;exitDy=0;entryX=0;entryY=0.5;entryDx=0;entryDy=0;" edge="1" parent="1" source="ZWDIc0FmqlrQE_8LziBr-41" target="ZWDIc0FmqlrQE_8LziBr-38">
          <mxGeometry x="313" y="709.88" as="geometry">
            <mxPoint x="230" y="825" as="sourcePoint" />
            <mxPoint x="180" y="690" as="targetPoint" />
            <Array as="points">
              <mxPoint x="200" y="830" />
              <mxPoint x="200" y="710" />
            </Array>
          </mxGeometry>
        </mxCell>
        <mxCell id="ZWDIc0FmqlrQE_8LziBr-35" value="" style="edgeStyle=orthogonalEdgeStyle;rounded=0;html=1;jettySize=auto;orthogonalLoop=1;strokeWidth=4;endArrow=none;endFill=0;exitX=0;exitY=0.5;exitDx=0;exitDy=0;entryX=1;entryY=0.5;entryDx=0;entryDy=0;entryPerimeter=0;" edge="1" parent="1" source="ZWDIc0FmqlrQE_8LziBr-33" target="9hBKPDzoitwpIBdzFDQ7-25">
          <mxGeometry x="263" y="519.88" as="geometry">
            <mxPoint x="180" y="635" as="sourcePoint" />
            <mxPoint x="130" y="500" as="targetPoint" />
            <Array as="points">
              <mxPoint x="200" y="640" />
              <mxPoint x="200" y="270" />
            </Array>
          </mxGeometry>
        </mxCell>
        <mxCell id="ZWDIc0FmqlrQE_8LziBr-36" value="" style="edgeStyle=orthogonalEdgeStyle;rounded=0;html=1;jettySize=auto;orthogonalLoop=1;strokeWidth=4;endArrow=none;endFill=0;exitX=0;exitY=0.5;exitDx=0;exitDy=0;" edge="1" parent="1" source="ZWDIc0FmqlrQE_8LziBr-32">
          <mxGeometry x="224.5" y="432.38" as="geometry">
            <mxPoint x="141.5" y="547.5" as="sourcePoint" />
            <mxPoint x="180" y="270" as="targetPoint" />
            <Array as="points">
              <mxPoint x="200" y="560" />
              <mxPoint x="200" y="270" />
            </Array>
          </mxGeometry>
        </mxCell>
        <mxCell id="ZWDIc0FmqlrQE_8LziBr-37" value="" style="edgeStyle=orthogonalEdgeStyle;rounded=0;html=1;jettySize=auto;orthogonalLoop=1;strokeWidth=4;endArrow=none;endFill=0;exitX=0;exitY=0.5;exitDx=0;exitDy=0;entryX=1;entryY=0.5;entryDx=0;entryDy=0;entryPerimeter=0;" edge="1" parent="1" source="ZWDIc0FmqlrQE_8LziBr-31" target="9hBKPDzoitwpIBdzFDQ7-25">
          <mxGeometry x="263" y="409.88" as="geometry">
            <mxPoint x="180" y="525" as="sourcePoint" />
            <mxPoint x="130" y="390" as="targetPoint" />
            <Array as="points">
              <mxPoint x="200" y="480" />
              <mxPoint x="200" y="270" />
            </Array>
          </mxGeometry>
        </mxCell>
        <mxCell id="ZWDIc0FmqlrQE_8LziBr-38" value="&lt;font color=&quot;#000000&quot;&gt;해외송금&lt;br&gt;&lt;/font&gt;" style="rounded=1;whiteSpace=wrap;html=1;fillColor=#FFFFFF;strokeColor=#006EAF;fillStyle=auto;fontColor=#ffffff;strokeWidth=4;" vertex="1" parent="1">
          <mxGeometry x="230" y="690" width="90" height="40" as="geometry" />
        </mxCell>
        <mxCell id="ZWDIc0FmqlrQE_8LziBr-40" value="&lt;font color=&quot;#000000&quot;&gt;국내송금&lt;br&gt;&lt;/font&gt;" style="rounded=1;whiteSpace=wrap;html=1;fillColor=#FFFFFF;strokeColor=#006EAF;fillStyle=auto;fontColor=#ffffff;strokeWidth=4;" vertex="1" parent="1">
          <mxGeometry x="230" y="750" width="90" height="40" as="geometry" />
        </mxCell>
        <mxCell id="ZWDIc0FmqlrQE_8LziBr-41" value="&lt;font color=&quot;#000000&quot;&gt;ATM 출금&lt;br&gt;&lt;/font&gt;" style="rounded=1;whiteSpace=wrap;html=1;fillColor=#FFFFFF;strokeColor=#006EAF;fillStyle=auto;fontColor=#ffffff;strokeWidth=4;" vertex="1" parent="1">
          <mxGeometry x="230" y="810" width="90" height="40" as="geometry" />
        </mxCell>
        <mxCell id="ZWDIc0FmqlrQE_8LziBr-42" value="&lt;font color=&quot;#000000&quot;&gt;제로페이 결제&lt;br&gt;&lt;/font&gt;" style="rounded=1;whiteSpace=wrap;html=1;fillColor=none;strokeColor=#A50040;fillStyle=auto;fontColor=#ffffff;strokeWidth=4;" vertex="1" parent="1">
          <mxGeometry x="230" y="870" width="90" height="40" as="geometry" />
        </mxCell>
        <mxCell id="ZWDIc0FmqlrQE_8LziBr-43" value="&lt;font color=&quot;#000000&quot;&gt;한패스 카드&lt;br&gt;&lt;/font&gt;" style="rounded=1;whiteSpace=wrap;html=1;fillColor=none;strokeColor=#A50040;fillStyle=auto;fontColor=#ffffff;strokeWidth=4;" vertex="1" parent="1">
          <mxGeometry x="230" y="940" width="90" height="40" as="geometry" />
        </mxCell>
        <mxCell id="ZWDIc0FmqlrQE_8LziBr-44" value="&lt;font color=&quot;#000000&quot;&gt;충전하기&lt;br&gt;&lt;/font&gt;" style="rounded=1;whiteSpace=wrap;html=1;fillColor=none;strokeColor=#3700CC;fillStyle=auto;fontColor=#ffffff;strokeWidth=4;" vertex="1" parent="1">
          <mxGeometry x="230" y="1010" width="90" height="40" as="geometry" />
        </mxCell>
        <mxCell id="ZWDIc0FmqlrQE_8LziBr-47" value="" style="edgeStyle=orthogonalEdgeStyle;rounded=0;html=1;jettySize=auto;orthogonalLoop=1;strokeWidth=4;endArrow=none;endFill=0;entryX=0;entryY=0.5;entryDx=0;entryDy=0;exitX=0;exitY=0.5;exitDx=0;exitDy=0;" edge="1" parent="1" source="ZWDIc0FmqlrQE_8LziBr-43" target="ZWDIc0FmqlrQE_8LziBr-42">
          <mxGeometry x="237.2" y="909.8800000000001" as="geometry">
            <mxPoint x="159.95" y="1030" as="sourcePoint" />
            <mxPoint x="154.2" y="910" as="targetPoint" />
            <Array as="points">
              <mxPoint x="200" y="960" />
              <mxPoint x="200" y="890" />
            </Array>
          </mxGeometry>
        </mxCell>
        <mxCell id="ZWDIc0FmqlrQE_8LziBr-48" value="" style="edgeStyle=orthogonalEdgeStyle;rounded=0;html=1;jettySize=auto;orthogonalLoop=1;strokeWidth=4;endArrow=none;endFill=0;exitX=0;exitY=0.5;exitDx=0;exitDy=0;" edge="1" parent="1" source="ZWDIc0FmqlrQE_8LziBr-40">
          <mxGeometry x="260.1" y="719.88" as="geometry">
            <mxPoint x="182.85" y="840" as="sourcePoint" />
            <mxPoint x="200" y="770" as="targetPoint" />
            <Array as="points">
              <mxPoint x="200" y="770" />
            </Array>
          </mxGeometry>
        </mxCell>
        <mxCell id="ZWDIc0FmqlrQE_8LziBr-49" value="&lt;font color=&quot;#000000&quot;&gt;월렛 내역 보기&lt;br&gt;&lt;/font&gt;" style="rounded=1;whiteSpace=wrap;html=1;fillColor=none;strokeColor=#3700CC;fillStyle=auto;fontColor=#ffffff;strokeWidth=4;" vertex="1" parent="1">
          <mxGeometry x="230" y="1080" width="90" height="40" as="geometry" />
        </mxCell>
        <mxCell id="ZWDIc0FmqlrQE_8LziBr-50" value="&lt;font color=&quot;#000000&quot;&gt;QR 송금하기&lt;br&gt;&lt;/font&gt;" style="rounded=1;whiteSpace=wrap;html=1;fillColor=none;strokeColor=#3700CC;fillStyle=auto;fontColor=#ffffff;strokeWidth=4;" vertex="1" parent="1">
          <mxGeometry x="230" y="1150" width="90" height="40" as="geometry" />
        </mxCell>
        <mxCell id="ZWDIc0FmqlrQE_8LziBr-51" value="&lt;font color=&quot;#000000&quot;&gt;QR 송금받기&lt;br&gt;&lt;/font&gt;" style="rounded=1;whiteSpace=wrap;html=1;fillColor=none;strokeColor=#3700CC;fillStyle=auto;fontColor=#ffffff;strokeWidth=4;" vertex="1" parent="1">
          <mxGeometry x="230" y="1220" width="90" height="40" as="geometry" />
        </mxCell>
        <mxCell id="ZWDIc0FmqlrQE_8LziBr-52" value="" style="edgeStyle=orthogonalEdgeStyle;rounded=0;html=1;jettySize=auto;orthogonalLoop=1;strokeWidth=4;endArrow=none;endFill=0;entryX=0;entryY=0.5;entryDx=0;entryDy=0;exitX=0;exitY=0.5;exitDx=0;exitDy=0;" edge="1" parent="1" source="ZWDIc0FmqlrQE_8LziBr-51" target="ZWDIc0FmqlrQE_8LziBr-44">
          <mxGeometry x="282.95" y="1029.88" as="geometry">
            <mxPoint x="205.7" y="1150" as="sourcePoint" />
            <mxPoint x="199.95" y="1030" as="targetPoint" />
            <Array as="points">
              <mxPoint x="200" y="1240" />
              <mxPoint x="200" y="1030" />
            </Array>
          </mxGeometry>
        </mxCell>
        <mxCell id="ZWDIc0FmqlrQE_8LziBr-53" value="" style="edgeStyle=orthogonalEdgeStyle;rounded=0;html=1;jettySize=auto;orthogonalLoop=1;strokeWidth=4;endArrow=none;endFill=0;entryX=0;entryY=0.5;entryDx=0;entryDy=0;exitX=0;exitY=0.5;exitDx=0;exitDy=0;" edge="1" parent="1" source="ZWDIc0FmqlrQE_8LziBr-50" target="ZWDIc0FmqlrQE_8LziBr-49">
          <mxGeometry x="237.2" y="1089.88" as="geometry">
            <mxPoint x="159.95" y="1210" as="sourcePoint" />
            <mxPoint x="154.2" y="1090" as="targetPoint" />
            <Array as="points">
              <mxPoint x="200" y="1170" />
              <mxPoint x="200" y="1100" />
            </Array>
          </mxGeometry>
        </mxCell>
      </root>
    </mxGraphModel>
  </diagram>
</mxfile>
